HIERARCHY
ROOT joint_Root
{
	OFFSET 0.0 0.0 0.0
	CHANNELS 6 Xposition Yposition Zposition Zrotation Xrotation Yrotation 
	JOINT Hips
	{
		OFFSET -17.1583 93.1646 452.98
		CHANNELS 6 Xposition Yposition Zposition Zrotation Xrotation Yrotation 
		JOINT Spine
		{
			OFFSET 15.7357 0.0 0.0
			CHANNELS 6 Xposition Yposition Zposition Zrotation Xrotation Yrotation 
			JOINT Chest
			{
				OFFSET 8.98455 -0.406207 0.0
				CHANNELS 6 Xposition Yposition Zposition Zrotation Xrotation Yrotation 
				JOINT Neck
				{
					OFFSET 16.3773 0.0 0.0
					CHANNELS 6 Xposition Yposition Zposition Zrotation Xrotation Yrotation 
					JOINT Head
					{
						OFFSET 6.45672 0.0 0.0
						CHANNELS 6 Xposition Yposition Zposition Zrotation Xrotation Yrotation 
						End Site
						{
							OFFSET 0.0 0.0 0.0
						}
					}
				}
				JOINT Shoulder_L
				{
					OFFSET 12.9942 -0.242716 4.98039
					CHANNELS 6 Xposition Yposition Zposition Zrotation Xrotation Yrotation 
					JOINT UpperArm_L
					{
						OFFSET 5.34809 0.0 0.0
						CHANNELS 6 Xposition Yposition Zposition Zrotation Xrotation Yrotation 
						JOINT LowerArm_L
						{
							OFFSET 24.3286 1.87007e-05 0.0
							CHANNELS 6 Xposition Yposition Zposition Zrotation Xrotation Yrotation 
							JOINT Hand_L
							{
								OFFSET 22.2916 0.0 0.0
								CHANNELS 6 Xposition Yposition Zposition Zrotation Xrotation Yrotation 
								End Site
								{
									OFFSET 0.0 0.0 0.0
								}
							}
						}
					}
				}
				JOINT Shoulder_R
				{
					OFFSET 12.9945 -0.242716 -4.98039
					CHANNELS 6 Xposition Yposition Zposition Zrotation Xrotation Yrotation 
					JOINT UpperArm_R
					{
						OFFSET -5.34813 0.0 0.0
						CHANNELS 6 Xposition Yposition Zposition Zrotation Xrotation Yrotation 
						JOINT LowerArm_R
						{
							OFFSET -24.3289 0.000322201 0.0
							CHANNELS 6 Xposition Yposition Zposition Zrotation Xrotation Yrotation 
							JOINT Hand_R
							{
								OFFSET -22.2915 -0.000108084 0.0
								CHANNELS 6 Xposition Yposition Zposition Zrotation Xrotation Yrotation 
								End Site
								{
									OFFSET 0.0 0.0 0.0
								}
							}
						}
					}
				}
			}
		}
		JOINT UpperLeg_L
		{
			OFFSET -2.19248 -6.46944 0.0
			CHANNELS 6 Xposition Yposition Zposition Zrotation Xrotation Yrotation 
			JOINT LowerLeg_L
			{
				OFFSET 39.0811 0.0 -1.23785e-05
				CHANNELS 6 Xposition Yposition Zposition Zrotation Xrotation Yrotation 
				JOINT Foot_L
				{
					OFFSET 40.9854 0.0 -1.26872e-05
					CHANNELS 6 Xposition Yposition Zposition Zrotation Xrotation Yrotation 
					JOINT Toes_L
					{
						OFFSET 11.7543 0.0 0.0
						CHANNELS 6 Xposition Yposition Zposition Zrotation Xrotation Yrotation 
						End Site
						{
							OFFSET 0.0 0.0 0.0
						}
					}
				}
			}
		}
		JOINT UpperLeg_R
		{
			OFFSET -2.19251 6.46944 0.0
			CHANNELS 6 Xposition Yposition Zposition Zrotation Xrotation Yrotation 
			JOINT LowerLeg_R
			{
				OFFSET -39.0811 -0.00228153 -0.0401928
				CHANNELS 6 Xposition Yposition Zposition Zrotation Xrotation Yrotation 
				JOINT Foot_R
				{
					OFFSET -40.9854 0.0 0.0
					CHANNELS 6 Xposition Yposition Zposition Zrotation Xrotation Yrotation 
					JOINT Toes_R
					{
						OFFSET -11.7543 0.0 0.0
						CHANNELS 6 Xposition Yposition Zposition Zrotation Xrotation Yrotation 
						End Site
						{
							OFFSET 0.0 0.0 0.0
						}
					}
				}
			}
		}
	}
}
MOTION
Frames:	5
Frame Time:	0.0333333
0.000000 0.000000 0.000000 0.000000 0.000000 -0.000000 -3.956080 91.598500 -0.291062 84.070100 1.412770 6.596260 15.735700 0.000005 -0.000001 71.186900 86.493900 -68.956500 8.984550 -0.406207 -0.000000 -1.077220 -2.432900 4.436760 16.377300 -0.000001 -0.000001 9.820700 2.253420 6.258230 6.456720 -0.000001 -0.000000 -7.745380 1.215320 17.021600 12.994200 -0.242716 4.980390 -92.874200 8.212020 -70.633500 5.348090 -0.000007 -0.000001 -72.167700 27.749100 1.019150 24.328600 0.000019 0.000005 10.908300 27.146200 -22.898500 22.291600 -0.000001 0.000005 -2.440260 4.996080 7.402770 12.994500 -0.242716 -4.980390 86.801900 7.706140 -67.379200 -5.348130 -0.000001 -0.000004 -71.835000 -8.358550 -13.594500 -24.328900 0.000322 -0.000009 11.025000 -13.222000 -139.574000 -22.291500 -0.000108 -0.000004 43.336400 5.657350 -15.763400 -2.192480 -6.469440 -0.000000 -172.319000 6.547500 -2.050780 39.081100 -0.000007 -0.000012 0.412745 -0.722807 29.728700 40.985400 -0.000006 -0.000013 -0.789283 3.595000 -77.237100 11.754300 -0.000000 0.000003 0.000062 0.166581 -9.820440 -2.192510 6.469440 -0.000001 -170.237000 10.377800 -174.333000 -39.081100 -0.002282 -0.040193 0.144330 -0.471866 16.637300 -40.985400 0.000008 0.000006 6.035920 2.926760 -72.309200 -11.754300 -0.000006 -0.000006 -0.010977 0.278467 -5.257950
0.000000 0.000000 0.000000 0.000000 0.000000 -0.000000 -3.973470 91.600000 -0.322946 84.076100 1.459210 6.603760 15.735700 0.000005 -0.000001 71.448300 86.473500 -69.238900 8.984550 -0.406207 -0.000000 -1.029160 -2.413030 4.395740 16.377300 -0.000001 -0.000001 9.847310 2.233500 6.181150 6.456720 -0.000001 -0.000000 -7.789550 1.176620 16.960100 12.994200 -0.242716 4.980390 -92.885800 8.231950 -70.604700 5.348090 -0.000007 -0.000001 -72.152300 27.810500 0.976100 24.328600 0.000019 0.000005 10.860000 27.026800 -22.888800 22.291600 -0.000001 0.000005 -2.387780 4.994400 7.438410 12.994500 -0.242716 -4.980390 86.818600 7.663280 -67.372900 -5.348130 -0.000001 -0.000004 -71.726700 -8.276420 -13.589400 -24.328900 0.000322 -0.000009 11.114800 -13.302700 -139.508000 -22.291500 -0.000108 -0.000004 43.290600 5.655940 -15.615300 -2.192480 -6.469440 -0.000000 -172.306000 6.570950 -2.079840 39.081100 -0.000007 -0.000012 0.410688 -0.719133 29.731200 40.985400 -0.000006 -0.000013 -0.793467 3.640080 -77.196100 11.754300 -0.000000 0.000003 -0.000005 0.167704 -9.774820 -2.192510 6.469440 -0.000001 -170.234000 10.436500 -174.351000 -39.081100 -0.002282 -0.040193 0.144966 -0.473938 16.639300 -40.985400 0.000008 0.000006 6.063930 2.928410 -72.316800 -11.754300 -0.000006 -0.000006 -0.011316 0.280888 -5.158860
0.000000 0.000000 0.000000 0.000000 0.000000 -0.000000 -3.990720 91.610400 -0.360177 84.094700 1.511670 6.550400 15.735700 0.000005 -0.000001 71.650300 86.474300 -69.463100 8.984550 -0.406207 -0.000000 -1.023940 -2.387100 4.351890 16.377300 -0.000001 -0.000001 9.851520 2.197940 6.103620 6.456720 -0.000001 -0.000000 -7.781760 1.114590 16.890200 12.994200 -0.242716 4.980390 -92.904000 8.277260 -70.589500 5.348090 -0.000007 -0.000001 -72.124300 27.771600 0.940319 24.328600 0.000019 0.000005 10.977300 27.220200 -22.979700 22.291600 -0.000001 0.000005 -2.339330 4.993890 7.448990 12.994500 -0.242716 -4.980390 86.813600 7.664260 -67.343300 -5.348130 -0.000001 -0.000004 -71.603700 -8.320480 -13.588400 -24.328900 0.000322 -0.000009 11.030700 -13.197500 -139.507000 -22.291500 -0.000108 -0.000004 42.853200 5.654490 -15.462700 -2.192480 -6.469440 -0.000000 -172.304000 6.559260 -2.148140 39.081100 -0.000007 -0.000012 0.413594 -0.725248 29.696200 40.985400 -0.000006 -0.000013 -0.792425 3.696940 -77.207600 11.754300 -0.000000 0.000003 0.000034 0.167055 -9.801170 -2.192510 6.469440 -0.000001 -170.252000 10.526000 -174.417000 -39.081100 -0.002282 -0.040193 0.142686 -0.467386 16.603000 -40.985400 0.000008 0.000006 6.047560 2.966990 -72.256500 -11.754300 -0.000006 -0.000006 -0.010955 0.278310 -5.264390
0.000000 0.000000 0.000000 0.000000 0.000000 -0.000000 -4.010650 91.612100 -0.382557 84.077700 1.557210 6.526910 15.735700 0.000005 -0.000001 71.815500 86.465300 -69.640600 8.984550 -0.406207 -0.000000 -1.000960 -2.372060 4.327780 16.377300 -0.000001 -0.000001 9.965030 2.128170 6.031300 6.456720 -0.000001 -0.000000 -7.824940 0.955746 16.768800 12.994200 -0.242716 4.980390 -92.930300 8.330880 -70.542600 5.348090 -0.000007 -0.000001 -72.092200 27.777500 0.906809 24.328600 0.000019 0.000005 10.944200 27.123400 -22.983700 22.291600 -0.000001 0.000005 -2.366320 4.991070 7.508730 12.994500 -0.242716 -4.980390 86.803500 7.674950 -67.306900 -5.348130 -0.000001 -0.000004 -71.533200 -8.408070 -13.559700 -24.328900 0.000322 -0.000009 10.999600 -13.088400 -139.358000 -22.291500 -0.000108 -0.000004 42.598800 5.655280 -15.542700 -2.192480 -6.469440 -0.000000 -172.258000 6.550040 -2.215500 39.081100 -0.000007 -0.000012 0.411502 -0.721288 29.706200 40.985400 -0.000006 -0.000013 -0.799935 3.741970 -77.136000 11.754300 -0.000000 0.000003 0.000022 0.167261 -9.792820 -2.192510 6.469440 -0.000001 -170.193000 10.479600 -174.450000 -39.081100 -0.002282 -0.040193 0.143958 -0.472914 16.561100 -40.985400 0.000008 0.000006 6.124380 2.901480 -72.245000 -11.754300 -0.000006 -0.000006 -0.011399 0.281477 -5.134750
0.000000 0.000000 0.000000 0.000000 0.000000 -0.000000 -4.024870 91.618300 -0.406691 84.111600 1.588080 6.514780 15.735700 0.000005 -0.000001 71.930600 86.453000 -69.778800 8.984550 -0.406207 -0.000000 -0.973861 -2.363930 4.282110 16.377300 -0.000001 -0.000001 10.075900 2.057190 5.952890 6.456720 -0.000001 -0.000000 -7.820130 0.802793 16.583900 12.994200 -0.242716 4.980390 -92.949000 8.365410 -70.501700 5.348090 -0.000007 -0.000001 -72.111900 27.706600 0.897010 24.328600 0.000019 0.000005 10.891000 27.043000 -22.937400 22.291600 -0.000001 0.000005 -2.358280 4.993200 7.463760 12.994500 -0.242716 -4.980390 86.804000 7.663820 -67.280500 -5.348130 -0.000001 -0.000004 -71.518800 -8.368850 -13.536200 -24.328900 0.000322 -0.000009 10.980200 -12.995600 -139.212000 -22.291500 -0.000108 -0.000004 42.584000 5.654500 -15.463300 -2.192480 -6.469440 -0.000000 -172.277000 6.553180 -2.233650 39.081100 -0.000007 -0.000012 0.407389 -0.715187 29.667900 40.985400 -0.000006 -0.000013 -0.806779 3.758770 -77.101500 11.754300 -0.000000 0.000003 0.000009 0.167474 -9.784160 -2.192510 6.469440 -0.000001 -170.230000 10.574500 -174.468000 -39.081100 -0.002282 -0.040193 0.143808 -0.472856 16.546400 -40.985400 0.000008 0.000006 6.122930 2.957020 -72.225400 -11.754300 -0.000006 -0.000006 -0.011207 0.280116 -5.190460
